<svg xmlns="http://www.w3.org/2000/svg" xmlns:xlink="http://www.w3.org/1999/xlink" width="500" zoomAndPan="magnify" viewBox="0 0 375 374.999991" height="500" preserveAspectRatio="xMidYMid meet" version="1.0"><defs><g/><clipPath id="d5620ba499"><path d="M 136.984375 131.832031 L 238.234375 131.832031 L 238.234375 175.332031 L 136.984375 175.332031 Z M 136.984375 131.832031 " clip-rule="nonzero"/></clipPath></defs><path fill="#ffffff" d="M 212.132812 171.78125 C 202.148438 171.78125 194.023438 163.613281 194.023438 153.578125 C 194.023438 143.539062 202.148438 135.375 212.132812 135.375 C 222.117188 135.375 230.242188 143.539062 230.242188 153.578125 C 230.242188 163.613281 222.117188 171.78125 212.132812 171.78125 Z M 163.382812 171.78125 C 153.398438 171.78125 145.273438 163.613281 145.273438 153.578125 C 145.273438 143.539062 153.398438 135.375 163.382812 135.375 C 173.363281 135.375 181.492188 143.539062 181.492188 153.578125 C 181.492188 163.613281 173.363281 171.78125 163.382812 171.78125 Z M 234.964844 150.847656 L 233.039062 150.847656 C 231.703125 140.449219 222.839844 132.382812 212.132812 132.382812 C 202.296875 132.382812 194.015625 139.1875 191.695312 148.359375 C 190.617188 147.480469 189.246094 146.953125 187.753906 146.953125 C 186.265625 146.953125 184.898438 147.480469 183.824219 148.355469 C 181.503906 139.1875 173.21875 132.382812 163.382812 132.382812 C 152.675781 132.382812 143.8125 140.449219 142.476562 150.847656 L 140.230469 150.847656 C 138.726562 150.847656 137.511719 152.070312 137.511719 153.578125 C 137.511719 155.089844 138.726562 156.3125 140.230469 156.3125 L 142.476562 156.3125 C 143.816406 166.710938 152.675781 174.773438 163.382812 174.773438 C 175.011719 174.773438 184.472656 165.265625 184.472656 153.578125 C 184.472656 153.46875 184.464844 153.359375 184.460938 153.25 L 184.472656 153.25 C 184.472656 151.429688 185.945312 149.945312 187.753906 149.945312 C 189.574219 149.945312 191.046875 151.429688 191.046875 153.25 L 191.054688 153.25 C 191.054688 153.359375 191.046875 153.46875 191.046875 153.578125 C 191.046875 165.265625 200.503906 174.773438 212.132812 174.773438 C 222.839844 174.773438 231.699219 166.710938 233.039062 156.3125 L 234.964844 156.3125 C 236.464844 156.3125 237.679688 155.089844 237.679688 153.578125 C 237.679688 152.070312 236.464844 150.847656 234.964844 150.847656 " fill-opacity="1" fill-rule="nonzero"/><g clip-path="url(#d5620ba499)"><path fill="#ffffff" d="M 212.132812 171.78125 L 212.132812 171.246094 C 207.289062 171.246094 202.894531 169.265625 199.710938 166.0625 C 196.527344 162.863281 194.558594 158.449219 194.558594 153.578125 C 194.558594 148.707031 196.527344 144.292969 199.710938 141.09375 C 202.894531 137.894531 207.289062 135.914062 212.132812 135.914062 C 216.980469 135.914062 221.371094 137.894531 224.554688 141.09375 C 227.738281 144.292969 229.707031 148.707031 229.707031 153.578125 C 229.707031 158.449219 227.738281 162.863281 224.554688 166.0625 C 221.367188 169.265625 216.980469 171.246094 212.132812 171.246094 L 212.132812 172.320312 C 222.414062 172.320312 230.777344 163.914062 230.777344 153.578125 C 230.777344 143.242188 222.414062 134.835938 212.132812 134.835938 C 201.851562 134.835938 193.488281 143.242188 193.488281 153.578125 C 193.488281 163.914062 201.851562 172.320312 212.132812 172.320312 Z M 163.382812 171.78125 L 163.382812 171.246094 C 158.539062 171.246094 154.144531 169.265625 150.960938 166.0625 C 147.777344 162.863281 145.808594 158.449219 145.808594 153.578125 C 145.808594 148.707031 147.777344 144.292969 150.960938 141.09375 C 154.144531 137.894531 158.539062 135.914062 163.382812 135.914062 C 168.226562 135.914062 172.617188 137.894531 175.800781 141.09375 C 178.988281 144.292969 180.957031 148.707031 180.957031 153.578125 C 180.957031 158.449219 178.988281 162.863281 175.800781 166.0625 C 172.617188 169.265625 168.226562 171.246094 163.382812 171.246094 L 163.382812 172.320312 C 173.660156 172.320312 182.027344 163.914062 182.027344 153.578125 C 182.027344 143.242188 173.660156 134.835938 163.382812 134.835938 C 153.101562 134.835938 144.738281 143.242188 144.738281 153.578125 C 144.738281 163.914062 153.101562 172.320312 163.382812 172.320312 Z M 234.964844 150.847656 L 234.964844 150.308594 L 233.039062 150.308594 L 233.039062 150.847656 L 233.570312 150.78125 C 232.882812 145.445312 230.269531 140.710938 226.453125 137.3125 C 222.640625 133.914062 217.621094 131.84375 212.132812 131.84375 C 207.089844 131.84375 202.445312 133.589844 198.765625 136.507812 C 195.085938 139.429688 192.367188 143.523438 191.175781 148.226562 L 191.695312 148.359375 L 192.03125 147.941406 C 190.867188 146.988281 189.375 146.417969 187.753906 146.417969 C 186.140625 146.417969 184.652344 146.988281 183.484375 147.9375 L 183.824219 148.355469 L 184.339844 148.222656 C 183.152344 143.519531 180.433594 139.425781 176.753906 136.507812 C 173.074219 133.589844 168.425781 131.84375 163.382812 131.84375 C 157.894531 131.84375 152.875 133.914062 149.058594 137.3125 C 145.246094 140.710938 142.632812 145.445312 141.945312 150.78125 L 142.476562 150.847656 L 142.476562 150.308594 L 140.230469 150.308594 C 138.429688 150.308594 136.972656 151.773438 136.972656 153.578125 C 136.972656 155.386719 138.429688 156.847656 140.230469 156.847656 L 142.476562 156.847656 L 142.476562 156.3125 L 141.945312 156.378906 C 142.632812 161.710938 145.25 166.445312 149.0625 169.84375 C 152.875 173.246094 157.894531 175.3125 163.382812 175.3125 C 175.308594 175.3125 185.003906 165.5625 185.007812 153.578125 C 185.007812 153.445312 185 153.332031 185 153.242188 L 184.460938 153.25 L 184.460938 153.785156 L 185.007812 153.785156 L 185.007812 153.25 C 185.007812 152.484375 185.3125 151.796875 185.8125 151.292969 C 186.3125 150.792969 186.996094 150.484375 187.753906 150.484375 C 188.515625 150.484375 189.203125 150.792969 189.703125 151.292969 C 190.203125 151.796875 190.511719 152.484375 190.511719 153.25 L 190.511719 153.785156 L 191.054688 153.785156 L 191.054688 153.25 L 190.519531 153.242188 C 190.519531 153.332031 190.511719 153.445312 190.511719 153.578125 C 190.511719 165.5625 200.210938 175.3125 212.132812 175.3125 C 217.621094 175.3125 222.640625 173.246094 226.453125 169.84375 C 230.265625 166.445312 232.882812 161.710938 233.570312 156.378906 L 233.039062 156.3125 L 233.039062 156.847656 L 234.964844 156.847656 C 235.863281 156.851562 236.679688 156.480469 237.261719 155.890625 C 237.851562 155.300781 238.214844 154.480469 238.214844 153.578125 C 238.214844 151.773438 236.761719 150.308594 234.964844 150.308594 L 234.964844 151.386719 C 235.570312 151.386719 236.109375 151.632812 236.503906 152.027344 C 236.898438 152.425781 237.140625 152.972656 237.140625 153.578125 C 237.140625 154.1875 236.898438 154.734375 236.503906 155.132812 C 236.109375 155.527344 235.570312 155.773438 234.964844 155.773438 L 232.566406 155.773438 L 232.507812 156.242188 C 231.855469 161.308594 229.371094 165.808594 225.742188 169.039062 C 222.113281 172.273438 217.351562 174.238281 212.132812 174.238281 C 206.464844 174.238281 201.332031 171.921875 197.609375 168.179688 C 193.886719 164.4375 191.582031 159.273438 191.582031 153.578125 C 191.582031 153.488281 191.589844 153.382812 191.589844 153.253906 L 191.597656 152.710938 L 191.046875 152.710938 L 191.046875 153.25 L 191.582031 153.25 C 191.582031 151.128906 189.867188 149.40625 187.753906 149.40625 C 185.644531 149.40625 183.9375 151.128906 183.933594 153.25 L 184.472656 153.25 L 184.472656 152.710938 L 183.917969 152.710938 L 183.925781 153.253906 C 183.929688 153.382812 183.933594 153.488281 183.933594 153.578125 C 183.933594 159.273438 181.632812 164.4375 177.910156 168.179688 C 174.1875 171.921875 169.050781 174.238281 163.382812 174.238281 C 158.164062 174.238281 153.402344 172.273438 149.773438 169.039062 C 146.144531 165.808594 143.660156 161.308594 143.007812 156.242188 L 142.949219 155.773438 L 140.230469 155.773438 C 139.625 155.773438 139.082031 155.527344 138.683594 155.132812 C 138.289062 154.734375 138.046875 154.1875 138.042969 153.578125 C 138.046875 152.972656 138.289062 152.429688 138.683594 152.03125 C 139.082031 151.632812 139.625 151.386719 140.230469 151.386719 L 142.949219 151.386719 L 143.007812 150.917969 C 143.660156 145.847656 146.144531 141.351562 149.773438 138.117188 C 153.398438 134.886719 158.164062 132.921875 163.382812 132.921875 C 168.179688 132.921875 172.589844 134.578125 176.089844 137.351562 C 179.589844 140.128906 182.171875 144.023438 183.300781 148.488281 L 183.507812 149.304688 L 184.160156 148.773438 C 185.144531 147.972656 186.394531 147.492188 187.753906 147.492188 C 189.121094 147.492188 190.371094 147.972656 191.359375 148.777344 L 192.007812 149.304688 L 192.214844 148.492188 C 193.34375 144.023438 195.929688 140.128906 199.425781 137.355469 C 202.925781 134.578125 207.339844 132.921875 212.132812 132.921875 C 217.351562 132.921875 222.117188 134.886719 225.742188 138.117188 C 229.371094 141.351562 231.855469 145.847656 232.507812 150.917969 L 232.566406 151.386719 L 234.964844 151.386719 L 234.964844 150.847656 " fill-opacity="1" fill-rule="nonzero"/></g><g fill="#ffffff" fill-opacity="1"><g transform="translate(159.78515, 217.133657)"><g><path d="M 26.21875 -16.15625 C 26.800781 -16.15625 27.289062 -15.945312 27.6875 -15.53125 C 28.082031 -15.125 28.28125 -14.628906 28.28125 -14.046875 L 28.28125 -4.171875 C 28.28125 -3.378906 27.925781 -2.765625 27.21875 -2.328125 C 25.875 -1.453125 24.394531 -0.769531 22.78125 -0.28125 C 21.175781 0.195312 19.523438 0.4375 17.828125 0.4375 C 14.898438 0.4375 12.210938 -0.265625 9.765625 -1.671875 C 7.328125 -3.078125 5.40625 -4.984375 4 -7.390625 C 2.59375 -9.804688 1.890625 -12.460938 1.890625 -15.359375 C 1.890625 -18.265625 2.59375 -20.921875 4 -23.328125 C 5.40625 -25.742188 7.328125 -27.65625 9.765625 -29.0625 C 12.210938 -30.46875 14.898438 -31.171875 17.828125 -31.171875 C 19.285156 -31.171875 20.695312 -31.007812 22.0625 -30.6875 C 23.425781 -30.363281 24.648438 -29.878906 25.734375 -29.234375 C 26.078125 -29.035156 26.335938 -28.789062 26.515625 -28.5 C 26.691406 -28.207031 26.78125 -27.882812 26.78125 -27.53125 C 26.78125 -26.945312 26.582031 -26.441406 26.1875 -26.015625 C 25.789062 -25.585938 25.316406 -25.375 24.765625 -25.375 C 24.328125 -25.375 23.945312 -25.476562 23.625 -25.6875 C 21.71875 -26.5625 19.785156 -27 17.828125 -27 C 15.722656 -27 13.796875 -26.484375 12.046875 -25.453125 C 10.304688 -24.429688 8.929688 -23.03125 7.921875 -21.25 C 6.910156 -19.46875 6.40625 -17.503906 6.40625 -15.359375 C 6.40625 -13.222656 6.910156 -11.269531 7.921875 -9.5 C 8.929688 -7.726562 10.304688 -6.320312 12.046875 -5.28125 C 13.796875 -4.25 15.722656 -3.734375 17.828125 -3.734375 C 18.816406 -3.734375 19.859375 -3.847656 20.953125 -4.078125 C 22.054688 -4.316406 23.003906 -4.625 23.796875 -5 L 23.796875 -11.984375 L 18.484375 -11.984375 C 17.898438 -11.984375 17.398438 -12.179688 16.984375 -12.578125 C 16.578125 -12.972656 16.375 -13.460938 16.375 -14.046875 C 16.375 -14.660156 16.578125 -15.164062 16.984375 -15.5625 C 17.398438 -15.957031 17.898438 -16.15625 18.484375 -16.15625 Z M 26.21875 -16.15625 "/></g></g></g><g fill="#ffffff" fill-opacity="1"><g transform="translate(190.302662, 217.133657)"><g><path d="M 11.671875 -20.546875 C 13.578125 -20.546875 15.304688 -20.113281 16.859375 -19.25 C 18.410156 -18.382812 19.625 -17.179688 20.5 -15.640625 C 21.382812 -14.109375 21.828125 -12.394531 21.828125 -10.5 C 21.828125 -8.476562 21.304688 -6.644531 20.265625 -5 C 19.222656 -3.363281 17.800781 -2.066406 16 -1.109375 C 14.195312 -0.160156 12.226562 0.3125 10.09375 0.3125 C 8.894531 0.3125 7.695312 0.125 6.5 -0.25 C 5.300781 -0.632812 4.289062 -1.164062 3.46875 -1.84375 C 3.175781 -2.070312 2.941406 -2.378906 2.765625 -2.765625 C 2.585938 -3.148438 2.5 -3.53125 2.5 -3.90625 C 2.5 -4.34375 2.679688 -4.742188 3.046875 -5.109375 C 3.410156 -5.472656 3.890625 -5.65625 4.484375 -5.65625 C 4.859375 -5.65625 5.367188 -5.4375 6.015625 -5 C 7.328125 -4.039062 8.671875 -3.5625 10.046875 -3.5625 C 11.453125 -3.5625 12.734375 -3.867188 13.890625 -4.484375 C 15.046875 -5.097656 15.960938 -5.929688 16.640625 -6.984375 C 17.316406 -8.035156 17.65625 -9.191406 17.65625 -10.453125 C 17.65625 -12.328125 17.039062 -13.832031 15.8125 -14.96875 C 14.582031 -16.113281 13.03125 -16.6875 11.15625 -16.6875 C 10.363281 -16.6875 9.664062 -16.582031 9.0625 -16.375 C 8.46875 -16.164062 7.742188 -15.859375 6.890625 -15.453125 C 6.535156 -15.273438 6.191406 -15.117188 5.859375 -14.984375 C 5.523438 -14.859375 5.238281 -14.796875 5 -14.796875 C 4.15625 -14.796875 3.523438 -15.046875 3.109375 -15.546875 C 2.703125 -16.046875 2.5 -16.613281 2.5 -17.25 L 2.546875 -17.6875 L 4.125 -29.0625 C 4.21875 -29.53125 4.457031 -29.925781 4.84375 -30.25 C 5.238281 -30.570312 5.71875 -30.734375 6.28125 -30.734375 L 19.1875 -30.734375 C 19.738281 -30.734375 20.195312 -30.539062 20.5625 -30.15625 C 20.9375 -29.78125 21.125 -29.316406 21.125 -28.765625 C 21.125 -28.203125 20.9375 -27.738281 20.5625 -27.375 C 20.195312 -27.007812 19.738281 -26.828125 19.1875 -26.828125 L 7.734375 -26.828125 L 6.578125 -19.3125 C 7.222656 -19.664062 8.003906 -19.957031 8.921875 -20.1875 C 9.847656 -20.425781 10.765625 -20.546875 11.671875 -20.546875 Z M 11.671875 -20.546875 "/></g></g></g><g fill="#ffffff" fill-opacity="1"><g transform="translate(132.018878, 239.016899)"><g><path d="M 8.09375 -3.8125 C 8.09375 -3.03125 7.9375 -2.335938 7.625 -1.734375 C 7.3125 -1.140625 6.863281 -0.679688 6.28125 -0.359375 C 5.707031 -0.046875 5.035156 0.109375 4.265625 0.109375 C 3.066406 0.109375 2.128906 -0.238281 1.453125 -0.9375 C 0.785156 -1.644531 0.453125 -2.601562 0.453125 -3.8125 C 0.453125 -5.03125 0.785156 -5.976562 1.453125 -6.65625 C 2.128906 -7.34375 3.066406 -7.6875 4.265625 -7.6875 C 5.460938 -7.6875 6.398438 -7.34375 7.078125 -6.65625 C 7.753906 -5.96875 8.09375 -5.019531 8.09375 -3.8125 Z M 6.484375 -3.8125 C 6.484375 -4.632812 6.285156 -5.273438 5.890625 -5.734375 C 5.503906 -6.203125 4.960938 -6.4375 4.265625 -6.4375 C 3.554688 -6.4375 3.007812 -6.203125 2.625 -5.734375 C 2.238281 -5.273438 2.046875 -4.632812 2.046875 -3.8125 C 2.046875 -2.988281 2.242188 -2.335938 2.640625 -1.859375 C 3.035156 -1.378906 3.578125 -1.140625 4.265625 -1.140625 C 4.972656 -1.140625 5.519531 -1.367188 5.90625 -1.828125 C 6.289062 -2.296875 6.484375 -2.957031 6.484375 -3.8125 Z M 6.484375 -3.8125 "/></g></g></g><g fill="#ffffff" fill-opacity="1"><g transform="translate(142.383944, 239.016899)"><g><path d="M 6.96875 -5.171875 C 6.96875 -4.679688 6.851562 -4.242188 6.625 -3.859375 C 6.40625 -3.484375 6.085938 -3.191406 5.671875 -2.984375 C 5.253906 -2.773438 4.765625 -2.671875 4.203125 -2.671875 L 2.328125 -2.671875 L 2.328125 0 L 0.734375 0 L 0.734375 -7.5625 L 4.140625 -7.5625 C 5.046875 -7.5625 5.742188 -7.351562 6.234375 -6.9375 C 6.722656 -6.519531 6.96875 -5.929688 6.96875 -5.171875 Z M 5.359375 -5.140625 C 5.359375 -5.941406 4.890625 -6.34375 3.953125 -6.34375 L 2.328125 -6.34375 L 2.328125 -3.890625 L 4 -3.890625 C 4.4375 -3.890625 4.769531 -3.992188 5 -4.203125 C 5.238281 -4.421875 5.359375 -4.734375 5.359375 -5.140625 Z M 5.359375 -5.140625 "/></g></g></g><g fill="#ffffff" fill-opacity="1"><g transform="translate(151.530638, 239.016899)"><g><path d="M 4.15625 -6.34375 L 4.15625 0 L 2.5625 0 L 2.5625 -6.34375 L 0.125 -6.34375 L 0.125 -7.5625 L 6.59375 -7.5625 L 6.59375 -6.34375 Z M 4.15625 -6.34375 "/></g></g></g><g fill="#ffffff" fill-opacity="1"><g transform="translate(160.060094, 239.016899)"><g><path d="M 0.734375 0 L 0.734375 -7.5625 L 2.328125 -7.5625 L 2.328125 0 Z M 0.734375 0 "/></g></g></g><g fill="#ffffff" fill-opacity="1"><g transform="translate(164.929068, 239.016899)"><g><path d="M 4.265625 -1.140625 C 5.222656 -1.140625 5.890625 -1.617188 6.265625 -2.578125 L 7.640625 -2.0625 C 7.347656 -1.332031 6.910156 -0.785156 6.328125 -0.421875 C 5.753906 -0.0664062 5.066406 0.109375 4.265625 0.109375 C 3.046875 0.109375 2.101562 -0.234375 1.4375 -0.921875 C 0.78125 -1.609375 0.453125 -2.570312 0.453125 -3.8125 C 0.453125 -5.0625 0.769531 -6.019531 1.40625 -6.6875 C 2.050781 -7.351562 2.984375 -7.6875 4.203125 -7.6875 C 5.085938 -7.6875 5.804688 -7.503906 6.359375 -7.140625 C 6.921875 -6.785156 7.316406 -6.265625 7.546875 -5.578125 L 6.15625 -5.1875 C 6.03125 -5.570312 5.796875 -5.875 5.453125 -6.09375 C 5.109375 -6.320312 4.703125 -6.4375 4.234375 -6.4375 C 3.515625 -6.4375 2.96875 -6.210938 2.59375 -5.765625 C 2.226562 -5.328125 2.046875 -4.675781 2.046875 -3.8125 C 2.046875 -2.945312 2.234375 -2.285156 2.609375 -1.828125 C 2.992188 -1.367188 3.546875 -1.140625 4.265625 -1.140625 Z M 4.265625 -1.140625 "/></g></g></g><g fill="#ffffff" fill-opacity="1"><g transform="translate(174.682266, 239.016899)"><g><path d="M 6.078125 0 L 5.421875 -1.9375 L 2.53125 -1.9375 L 1.859375 0 L 0.28125 0 L 3.03125 -7.5625 L 4.90625 -7.5625 L 7.65625 0 Z M 3.96875 -6.40625 L 3.9375 -6.28125 C 3.90625 -6.15625 3.863281 -6.007812 3.8125 -5.84375 C 3.757812 -5.675781 3.453125 -4.769531 2.890625 -3.125 L 5.0625 -3.125 L 4.3125 -5.296875 L 4.078125 -6.03125 Z M 3.96875 -6.40625 "/></g></g></g><g fill="#ffffff" fill-opacity="1"><g transform="translate(184.435464, 239.016899)"><g><path d="M 0.734375 0 L 0.734375 -7.5625 L 2.328125 -7.5625 L 2.328125 -1.21875 L 6.375 -1.21875 L 6.375 0 Z M 0.734375 0 "/></g></g></g><g fill="#ffffff" fill-opacity="1"><g transform="translate(192.964923, 239.016899)"><g/></g></g><g fill="#ffffff" fill-opacity="1"><g transform="translate(197.833897, 239.016899)"><g><path d="M 6.90625 -2.1875 C 6.90625 -1.4375 6.628906 -0.863281 6.078125 -0.46875 C 5.535156 -0.0820312 4.726562 0.109375 3.65625 0.109375 C 2.6875 0.109375 1.925781 -0.0625 1.375 -0.40625 C 0.820312 -0.75 0.46875 -1.269531 0.3125 -1.96875 L 1.84375 -2.21875 C 1.945312 -1.820312 2.148438 -1.53125 2.453125 -1.34375 C 2.753906 -1.164062 3.171875 -1.078125 3.703125 -1.078125 C 4.804688 -1.078125 5.359375 -1.414062 5.359375 -2.09375 C 5.359375 -2.300781 5.296875 -2.472656 5.171875 -2.609375 C 5.046875 -2.753906 4.867188 -2.875 4.640625 -2.96875 C 4.410156 -3.0625 3.96875 -3.175781 3.3125 -3.3125 C 2.738281 -3.4375 2.34375 -3.539062 2.125 -3.625 C 1.90625 -3.707031 1.703125 -3.800781 1.515625 -3.90625 C 1.335938 -4.019531 1.1875 -4.148438 1.0625 -4.296875 C 0.9375 -4.453125 0.835938 -4.632812 0.765625 -4.84375 C 0.703125 -5.050781 0.671875 -5.289062 0.671875 -5.5625 C 0.671875 -6.25 0.925781 -6.773438 1.4375 -7.140625 C 1.957031 -7.503906 2.707031 -7.6875 3.6875 -7.6875 C 4.625 -7.6875 5.328125 -7.535156 5.796875 -7.234375 C 6.265625 -6.941406 6.566406 -6.457031 6.703125 -5.78125 L 5.171875 -5.578125 C 5.085938 -5.898438 4.925781 -6.144531 4.6875 -6.3125 C 4.445312 -6.476562 4.101562 -6.5625 3.65625 -6.5625 C 2.695312 -6.5625 2.21875 -6.257812 2.21875 -5.65625 C 2.21875 -5.457031 2.265625 -5.296875 2.359375 -5.171875 C 2.460938 -5.046875 2.613281 -4.9375 2.8125 -4.84375 C 3.019531 -4.757812 3.429688 -4.648438 4.046875 -4.515625 C 4.765625 -4.367188 5.28125 -4.226562 5.59375 -4.09375 C 5.90625 -3.96875 6.15625 -3.816406 6.34375 -3.640625 C 6.53125 -3.460938 6.671875 -3.253906 6.765625 -3.015625 C 6.859375 -2.773438 6.90625 -2.5 6.90625 -2.1875 Z M 6.90625 -2.1875 "/></g></g></g><g fill="#ffffff" fill-opacity="1"><g transform="translate(206.980592, 239.016899)"><g><path d="M 4.15625 -6.34375 L 4.15625 0 L 2.5625 0 L 2.5625 -6.34375 L 0.125 -6.34375 L 0.125 -7.5625 L 6.59375 -7.5625 L 6.59375 -6.34375 Z M 4.15625 -6.34375 "/></g></g></g><g fill="#ffffff" fill-opacity="1"><g transform="translate(215.510051, 239.016899)"><g><path d="M 8.09375 -3.8125 C 8.09375 -3.03125 7.9375 -2.335938 7.625 -1.734375 C 7.3125 -1.140625 6.863281 -0.679688 6.28125 -0.359375 C 5.707031 -0.046875 5.035156 0.109375 4.265625 0.109375 C 3.066406 0.109375 2.128906 -0.238281 1.453125 -0.9375 C 0.785156 -1.644531 0.453125 -2.601562 0.453125 -3.8125 C 0.453125 -5.03125 0.785156 -5.976562 1.453125 -6.65625 C 2.128906 -7.34375 3.066406 -7.6875 4.265625 -7.6875 C 5.460938 -7.6875 6.398438 -7.34375 7.078125 -6.65625 C 7.753906 -5.96875 8.09375 -5.019531 8.09375 -3.8125 Z M 6.484375 -3.8125 C 6.484375 -4.632812 6.285156 -5.273438 5.890625 -5.734375 C 5.503906 -6.203125 4.960938 -6.4375 4.265625 -6.4375 C 3.554688 -6.4375 3.007812 -6.203125 2.625 -5.734375 C 2.238281 -5.273438 2.046875 -4.632812 2.046875 -3.8125 C 2.046875 -2.988281 2.242188 -2.335938 2.640625 -1.859375 C 3.035156 -1.378906 3.578125 -1.140625 4.265625 -1.140625 C 4.972656 -1.140625 5.519531 -1.367188 5.90625 -1.828125 C 6.289062 -2.296875 6.484375 -2.957031 6.484375 -3.8125 Z M 6.484375 -3.8125 "/></g></g></g><g fill="#ffffff" fill-opacity="1"><g transform="translate(225.875119, 239.016899)"><g><path d="M 5.9375 0 L 4.171875 -2.875 L 2.328125 -2.875 L 2.328125 0 L 0.734375 0 L 0.734375 -7.5625 L 4.515625 -7.5625 C 5.421875 -7.5625 6.117188 -7.367188 6.609375 -6.984375 C 7.097656 -6.597656 7.34375 -6.039062 7.34375 -5.3125 C 7.34375 -4.78125 7.191406 -4.320312 6.890625 -3.9375 C 6.585938 -3.550781 6.179688 -3.300781 5.671875 -3.1875 L 7.71875 0 Z M 5.75 -5.25 C 5.75 -5.976562 5.28125 -6.34375 4.34375 -6.34375 L 2.328125 -6.34375 L 2.328125 -4.109375 L 4.390625 -4.109375 C 4.835938 -4.109375 5.175781 -4.207031 5.40625 -4.40625 C 5.632812 -4.601562 5.75 -4.882812 5.75 -5.25 Z M 5.75 -5.25 "/></g></g></g><g fill="#ffffff" fill-opacity="1"><g transform="translate(235.628311, 239.016899)"><g><path d="M 0.734375 0 L 0.734375 -7.5625 L 6.6875 -7.5625 L 6.6875 -6.34375 L 2.328125 -6.34375 L 2.328125 -4.4375 L 6.359375 -4.4375 L 6.359375 -3.21875 L 2.328125 -3.21875 L 2.328125 -1.21875 L 6.90625 -1.21875 L 6.90625 0 Z M 0.734375 0 "/></g></g></g><g fill="#ffffff" fill-opacity="1"><g transform="translate(84.472149, 173.025574)"><g><path d="M 5.75 -1.109375 C 5.914062 -1.109375 6.050781 -1.050781 6.15625 -0.9375 C 6.269531 -0.820312 6.328125 -0.691406 6.328125 -0.546875 C 6.328125 -0.378906 6.269531 -0.242188 6.15625 -0.140625 C 6.050781 -0.046875 5.914062 0 5.75 0 L 1.578125 0 C 1.410156 0 1.269531 -0.0546875 1.15625 -0.171875 C 1.050781 -0.285156 1 -0.421875 1 -0.578125 L 1 -7.828125 C 1 -7.984375 1.050781 -8.117188 1.15625 -8.234375 C 1.269531 -8.347656 1.410156 -8.40625 1.578125 -8.40625 L 5.75 -8.40625 C 5.914062 -8.40625 6.050781 -8.351562 6.15625 -8.25 C 6.269531 -8.144531 6.328125 -8.007812 6.328125 -7.84375 C 6.328125 -7.675781 6.269531 -7.539062 6.15625 -7.4375 C 6.050781 -7.34375 5.914062 -7.296875 5.75 -7.296875 L 2.1875 -7.296875 L 2.1875 -4.84375 L 5.203125 -4.84375 C 5.367188 -4.84375 5.503906 -4.789062 5.609375 -4.6875 C 5.722656 -4.582031 5.78125 -4.453125 5.78125 -4.296875 C 5.78125 -4.128906 5.722656 -3.992188 5.609375 -3.890625 C 5.503906 -3.796875 5.367188 -3.75 5.203125 -3.75 L 2.1875 -3.75 L 2.1875 -1.109375 Z M 5.75 -1.109375 "/></g></g></g><g fill="#ffffff" fill-opacity="1"><g transform="translate(92.505431, 173.025574)"><g><path d="M 3.546875 0.125 C 2.953125 0.125 2.429688 0.0390625 1.984375 -0.125 C 1.535156 -0.289062 1.109375 -0.554688 0.703125 -0.921875 C 0.535156 -1.066406 0.453125 -1.234375 0.453125 -1.421875 C 0.453125 -1.554688 0.507812 -1.679688 0.625 -1.796875 C 0.738281 -1.921875 0.867188 -1.984375 1.015625 -1.984375 C 1.148438 -1.984375 1.269531 -1.9375 1.375 -1.84375 C 1.6875 -1.550781 2.015625 -1.332031 2.359375 -1.1875 C 2.703125 -1.050781 3.085938 -0.984375 3.515625 -0.984375 C 4.015625 -0.984375 4.4375 -1.097656 4.78125 -1.328125 C 5.132812 -1.566406 5.3125 -1.859375 5.3125 -2.203125 C 5.300781 -2.617188 5.125 -2.941406 4.78125 -3.171875 C 4.445312 -3.398438 3.929688 -3.59375 3.234375 -3.75 C 2.410156 -3.914062 1.773438 -4.1875 1.328125 -4.5625 C 0.890625 -4.945312 0.671875 -5.484375 0.671875 -6.171875 C 0.671875 -6.640625 0.796875 -7.050781 1.046875 -7.40625 C 1.296875 -7.757812 1.640625 -8.03125 2.078125 -8.21875 C 2.515625 -8.414062 3.007812 -8.515625 3.5625 -8.515625 C 4.0625 -8.515625 4.53125 -8.4375 4.96875 -8.28125 C 5.40625 -8.125 5.757812 -7.910156 6.03125 -7.640625 C 6.21875 -7.484375 6.3125 -7.3125 6.3125 -7.125 C 6.3125 -6.976562 6.253906 -6.847656 6.140625 -6.734375 C 6.035156 -6.628906 5.910156 -6.578125 5.765625 -6.578125 C 5.648438 -6.578125 5.554688 -6.609375 5.484375 -6.671875 C 5.273438 -6.878906 4.984375 -7.054688 4.609375 -7.203125 C 4.242188 -7.347656 3.894531 -7.421875 3.5625 -7.421875 C 3.03125 -7.421875 2.601562 -7.304688 2.28125 -7.078125 C 1.96875 -6.859375 1.8125 -6.570312 1.8125 -6.21875 C 1.8125 -5.820312 1.96875 -5.519531 2.28125 -5.3125 C 2.601562 -5.101562 3.078125 -4.925781 3.703125 -4.78125 C 4.316406 -4.644531 4.820312 -4.484375 5.21875 -4.296875 C 5.613281 -4.117188 5.921875 -3.863281 6.140625 -3.53125 C 6.359375 -3.207031 6.46875 -2.78125 6.46875 -2.25 C 6.46875 -1.789062 6.335938 -1.378906 6.078125 -1.015625 C 5.816406 -0.660156 5.460938 -0.378906 5.015625 -0.171875 C 4.566406 0.0234375 4.078125 0.125 3.546875 0.125 Z M 3.546875 0.125 "/></g></g></g><g fill="#ffffff" fill-opacity="1"><g transform="translate(100.682565, 173.025574)"><g><path d="M 6.4375 -8.40625 C 6.613281 -8.40625 6.753906 -8.351562 6.859375 -8.25 C 6.960938 -8.144531 7.015625 -8.007812 7.015625 -7.84375 C 7.015625 -7.675781 6.960938 -7.546875 6.859375 -7.453125 C 6.753906 -7.359375 6.613281 -7.3125 6.4375 -7.3125 L 4.3125 -7.3125 L 4.3125 -0.578125 C 4.3125 -0.421875 4.25 -0.285156 4.125 -0.171875 C 4.007812 -0.0546875 3.867188 0 3.703125 0 C 3.523438 0 3.375 -0.0546875 3.25 -0.171875 C 3.132812 -0.285156 3.078125 -0.421875 3.078125 -0.578125 L 3.078125 -7.3125 L 0.953125 -7.3125 C 0.785156 -7.3125 0.648438 -7.359375 0.546875 -7.453125 C 0.441406 -7.554688 0.390625 -7.691406 0.390625 -7.859375 C 0.390625 -8.015625 0.441406 -8.144531 0.546875 -8.25 C 0.648438 -8.351562 0.785156 -8.40625 0.953125 -8.40625 Z M 6.4375 -8.40625 "/></g></g></g><g fill="#ffffff" fill-opacity="1"><g transform="translate(109.279284, 173.025574)"><g><path d="M 4.53125 -8.40625 C 5.28125 -8.40625 5.921875 -8.210938 6.453125 -7.828125 C 6.992188 -7.453125 7.398438 -6.945312 7.671875 -6.3125 C 7.941406 -5.675781 8.078125 -4.972656 8.078125 -4.203125 C 8.078125 -3.421875 7.941406 -2.707031 7.671875 -2.0625 C 7.398438 -1.425781 6.992188 -0.921875 6.453125 -0.546875 C 5.921875 -0.179688 5.28125 0 4.53125 0 L 1.578125 0 C 1.410156 0 1.269531 -0.0546875 1.15625 -0.171875 C 1.050781 -0.285156 1 -0.421875 1 -0.578125 L 1 -7.828125 C 1 -7.984375 1.050781 -8.117188 1.15625 -8.234375 C 1.269531 -8.347656 1.410156 -8.40625 1.578125 -8.40625 Z M 4.40625 -1.109375 C 5.21875 -1.109375 5.828125 -1.394531 6.234375 -1.96875 C 6.648438 -2.550781 6.859375 -3.296875 6.859375 -4.203125 C 6.859375 -5.097656 6.648438 -5.835938 6.234375 -6.421875 C 5.816406 -7.003906 5.207031 -7.296875 4.40625 -7.296875 L 2.1875 -7.296875 L 2.1875 -1.109375 Z M 4.40625 -1.109375 "/></g></g></g><g fill="#ffffff" fill-opacity="1"><g transform="translate(260.23982, 173.025574)"><g><path d="M 5.609375 -1.0625 C 5.765625 -1.0625 5.894531 -1.007812 6 -0.90625 C 6.101562 -0.800781 6.15625 -0.671875 6.15625 -0.515625 C 6.15625 -0.359375 6.101562 -0.234375 6 -0.140625 C 5.894531 -0.046875 5.765625 0 5.609375 0 L 1.359375 0 C 1.191406 0 1.054688 -0.046875 0.953125 -0.140625 C 0.847656 -0.242188 0.796875 -0.378906 0.796875 -0.546875 C 0.796875 -0.691406 0.851562 -0.828125 0.96875 -0.953125 L 3.640625 -3.859375 C 4.390625 -4.648438 4.765625 -5.351562 4.765625 -5.96875 C 4.765625 -6.394531 4.617188 -6.75 4.328125 -7.03125 C 4.046875 -7.320312 3.6875 -7.46875 3.25 -7.46875 C 2.957031 -7.46875 2.671875 -7.378906 2.390625 -7.203125 C 2.117188 -7.035156 1.898438 -6.796875 1.734375 -6.484375 C 1.609375 -6.316406 1.457031 -6.234375 1.28125 -6.234375 C 1.144531 -6.234375 1.015625 -6.285156 0.890625 -6.390625 C 0.773438 -6.492188 0.71875 -6.613281 0.71875 -6.75 C 0.71875 -6.84375 0.75 -6.9375 0.8125 -7.03125 C 0.875 -7.125 0.957031 -7.238281 1.0625 -7.375 C 1.332031 -7.71875 1.671875 -7.992188 2.078125 -8.203125 C 2.484375 -8.410156 2.894531 -8.515625 3.3125 -8.515625 C 3.84375 -8.515625 4.304688 -8.40625 4.703125 -8.1875 C 5.097656 -7.976562 5.398438 -7.6875 5.609375 -7.3125 C 5.816406 -6.9375 5.921875 -6.503906 5.921875 -6.015625 C 5.921875 -5.085938 5.425781 -4.09375 4.4375 -3.03125 L 2.625 -1.0625 Z M 5.609375 -1.0625 "/></g></g></g><g fill="#ffffff" fill-opacity="1"><g transform="translate(268.021344, 173.025574)"><g><path d="M 3.640625 0.125 C 2.984375 0.125 2.421875 -0.0546875 1.953125 -0.421875 C 1.492188 -0.796875 1.144531 -1.304688 0.90625 -1.953125 C 0.664062 -2.597656 0.546875 -3.347656 0.546875 -4.203125 C 0.546875 -5.046875 0.664062 -5.789062 0.90625 -6.4375 C 1.144531 -7.09375 1.492188 -7.601562 1.953125 -7.96875 C 2.421875 -8.332031 2.984375 -8.515625 3.640625 -8.515625 C 4.296875 -8.515625 4.851562 -8.332031 5.3125 -7.96875 C 5.78125 -7.601562 6.128906 -7.09375 6.359375 -6.4375 C 6.597656 -5.789062 6.71875 -5.046875 6.71875 -4.203125 C 6.71875 -3.347656 6.597656 -2.597656 6.359375 -1.953125 C 6.128906 -1.304688 5.78125 -0.796875 5.3125 -0.421875 C 4.851562 -0.0546875 4.296875 0.125 3.640625 0.125 Z M 3.640625 -1.03125 C 4.222656 -1.03125 4.675781 -1.304688 5 -1.859375 C 5.320312 -2.410156 5.484375 -3.191406 5.484375 -4.203125 C 5.484375 -5.210938 5.320312 -5.992188 5 -6.546875 C 4.675781 -7.097656 4.222656 -7.375 3.640625 -7.375 C 3.054688 -7.375 2.597656 -7.097656 2.265625 -6.546875 C 1.941406 -5.992188 1.78125 -5.210938 1.78125 -4.203125 C 1.78125 -3.191406 1.941406 -2.410156 2.265625 -1.859375 C 2.597656 -1.304688 3.054688 -1.03125 3.640625 -1.03125 Z M 3.640625 -1.03125 "/></g></g></g><g fill="#ffffff" fill-opacity="1"><g transform="translate(276.486194, 173.025574)"><g><path d="M 5.609375 -1.0625 C 5.765625 -1.0625 5.894531 -1.007812 6 -0.90625 C 6.101562 -0.800781 6.15625 -0.671875 6.15625 -0.515625 C 6.15625 -0.359375 6.101562 -0.234375 6 -0.140625 C 5.894531 -0.046875 5.765625 0 5.609375 0 L 1.359375 0 C 1.191406 0 1.054688 -0.046875 0.953125 -0.140625 C 0.847656 -0.242188 0.796875 -0.378906 0.796875 -0.546875 C 0.796875 -0.691406 0.851562 -0.828125 0.96875 -0.953125 L 3.640625 -3.859375 C 4.390625 -4.648438 4.765625 -5.351562 4.765625 -5.96875 C 4.765625 -6.394531 4.617188 -6.75 4.328125 -7.03125 C 4.046875 -7.320312 3.6875 -7.46875 3.25 -7.46875 C 2.957031 -7.46875 2.671875 -7.378906 2.390625 -7.203125 C 2.117188 -7.035156 1.898438 -6.796875 1.734375 -6.484375 C 1.609375 -6.316406 1.457031 -6.234375 1.28125 -6.234375 C 1.144531 -6.234375 1.015625 -6.285156 0.890625 -6.390625 C 0.773438 -6.492188 0.71875 -6.613281 0.71875 -6.75 C 0.71875 -6.84375 0.75 -6.9375 0.8125 -7.03125 C 0.875 -7.125 0.957031 -7.238281 1.0625 -7.375 C 1.332031 -7.71875 1.671875 -7.992188 2.078125 -8.203125 C 2.484375 -8.410156 2.894531 -8.515625 3.3125 -8.515625 C 3.84375 -8.515625 4.304688 -8.40625 4.703125 -8.1875 C 5.097656 -7.976562 5.398438 -7.6875 5.609375 -7.3125 C 5.816406 -6.9375 5.921875 -6.503906 5.921875 -6.015625 C 5.921875 -5.085938 5.425781 -4.09375 4.4375 -3.03125 L 2.625 -1.0625 Z M 5.609375 -1.0625 "/></g></g></g><g fill="#ffffff" fill-opacity="1"><g transform="translate(284.267717, 173.025574)"><g><path d="M 3.296875 -5.3125 C 3.753906 -5.3125 4.164062 -5.195312 4.53125 -4.96875 C 4.894531 -4.738281 5.179688 -4.425781 5.390625 -4.03125 C 5.597656 -3.644531 5.703125 -3.207031 5.703125 -2.71875 C 5.703125 -2.15625 5.566406 -1.65625 5.296875 -1.21875 C 5.035156 -0.789062 4.671875 -0.457031 4.203125 -0.21875 C 3.742188 0.0078125 3.210938 0.125 2.609375 0.125 C 2.296875 0.125 1.988281 0.0820312 1.6875 0 C 1.382812 -0.09375 1.125 -0.222656 0.90625 -0.390625 C 0.695312 -0.515625 0.59375 -0.679688 0.59375 -0.890625 C 0.59375 -1.035156 0.644531 -1.171875 0.75 -1.296875 C 0.851562 -1.429688 0.984375 -1.5 1.140625 -1.5 C 1.285156 -1.5 1.429688 -1.445312 1.578125 -1.34375 C 1.898438 -1.039062 2.3125 -0.890625 2.8125 -0.890625 C 3.125 -0.890625 3.410156 -0.957031 3.671875 -1.09375 C 3.941406 -1.238281 4.15625 -1.445312 4.3125 -1.71875 C 4.476562 -1.988281 4.5625 -2.300781 4.5625 -2.65625 C 4.5625 -3.175781 4.398438 -3.570312 4.078125 -3.84375 C 3.753906 -4.125 3.367188 -4.265625 2.921875 -4.265625 C 2.796875 -4.265625 2.613281 -4.238281 2.375 -4.1875 C 2.195312 -4.132812 2.066406 -4.109375 1.984375 -4.109375 C 1.835938 -4.109375 1.71875 -4.160156 1.625 -4.265625 C 1.539062 -4.367188 1.5 -4.492188 1.5 -4.640625 C 1.5 -4.734375 1.515625 -4.8125 1.546875 -4.875 C 1.578125 -4.9375 1.628906 -5.007812 1.703125 -5.09375 L 3.75 -7.34375 L 0.96875 -7.34375 C 0.820312 -7.34375 0.695312 -7.394531 0.59375 -7.5 C 0.488281 -7.601562 0.4375 -7.734375 0.4375 -7.890625 C 0.4375 -8.035156 0.488281 -8.15625 0.59375 -8.25 C 0.695312 -8.351562 0.820312 -8.40625 0.96875 -8.40625 L 4.796875 -8.40625 C 4.984375 -8.40625 5.128906 -8.347656 5.234375 -8.234375 C 5.335938 -8.117188 5.390625 -7.984375 5.390625 -7.828125 C 5.390625 -7.679688 5.3125 -7.53125 5.15625 -7.375 Z M 3.296875 -5.3125 "/></g></g></g><path stroke-linecap="round" transform="matrix(0.746341, 0, 0, 0.75, 252.086062, 232.641899)" fill="none" stroke-linejoin="miter" d="M 2.501621 2.498301 L 48.753285 2.498301 " stroke="#ffffff" stroke-width="5" stroke-opacity="1" stroke-miterlimit="4"/><path stroke-linecap="round" transform="matrix(0.746341, 0, 0, 0.75, 84.472149, 232.641899)" fill="none" stroke-linejoin="miter" d="M 2.502468 2.498301 L 48.754132 2.498301 " stroke="#ffffff" stroke-width="5" stroke-opacity="1" stroke-miterlimit="4"/></svg>